<?xml version="1.0" encoding="UTF-8" standalone="no"?>
<svg xmlns="http://www.w3.org/2000/svg" xmlns:xlink="http://www.w3.org/1999/xlink" style="isolation:isolate" viewBox="0 0 100 60" width="100pt" height="60pt">
    <g>
        <path d=" M 86.49 28.65 C 86.679 27.569 86.794 26.478 86.834 25.383 C 86.873 13.849 78.77 3.75 67.133 0.828 C 55.495 -2.094 43.27 2.9 37.407 12.972 C 35.704 12.348 33.906 12 32.084 11.941 C 27.631 11.941 23.36 13.637 20.212 16.656 C 17.063 19.675 15.294 23.77 15.294 28.039 C 15.294 28.13 15.346 28.205 15.348 28.295 C 6.442 28.919 -0.343 36.204 0.013 44.759 C 0.369 53.314 7.738 60.057 16.667 60 L 83.333 60 C 92.538 60 100 52.845 100 44.02 C 99.932 36.45 94.259 29.996 86.49 28.65 L 86.49 28.65 Z " fill="rgb(255,255,255)" fill-opacity="0.5" />
    </g>
</svg>