<?xml version="1.0" encoding="UTF-8" standalone="no"?>
<svg xmlns="http://www.w3.org/2000/svg" xmlns:xlink="http://www.w3.org/1999/xlink" style="isolation:isolate" viewBox="0 0 100 100" width="100pt" height="100pt">
    <g>
        <path d=" M 95.184 68.148 C 77.209 79.783 52.309 75.304 39.818 58.361 C 27.329 41.415 31.33 17.535 48.879 5.322 C 50.007 4.535 50.442 3.128 49.94 1.886 C 49.438 0.643 48.127 -0.123 46.739 0.016 C 37.917 0.91 29.42 3.955 22.158 8.831 C -1.477 24.696 -7.06 56.115 9.563 78.671 C 26.187 101.227 59.057 106.83 82.692 90.963 C 89.953 86.089 95.827 79.486 99.693 71.863 C 100.3 70.666 99.987 69.227 98.929 68.356 C 97.877 67.486 96.341 67.4 95.184 68.148 Z " fill="rgb(243,255,173)" />
    </g>
</svg>