<?xml version="1.0" encoding="UTF-8" standalone="no"?>
<svg xmlns="http://www.w3.org/2000/svg" xmlns:xlink="http://www.w3.org/1999/xlink" style="isolation:isolate" viewBox="0 0 20 20" width="20pt" height="20pt">
    <g>
        <path d=" M 20 10.001 C 20 10.616 19.75 11.174 19.348 11.576 C 18.944 11.978 18.387 12.228 17.771 12.228 L 12.228 12.228 L 12.228 17.772 C 12.228 19.003 11.229 20 9.999 20 C 9.384 20 8.827 19.752 8.423 19.348 C 8.021 18.944 7.771 18.388 7.771 17.772 L 7.771 12.227 L 2.226 12.227 C 0.999 12.227 0 11.232 0 10.001 C 0 9.384 0.247 8.827 0.652 8.424 C 1.056 8.021 1.613 7.771 2.226 7.771 L 7.771 7.771 L 7.771 2.228 C 7.771 0.998 8.768 0 9.999 0 C 10.613 0 11.173 0.25 11.577 0.653 C 11.978 1.056 12.228 1.614 12.228 2.228 L 12.228 7.771 L 17.771 7.771 C 19.003 7.771 20 8.769 20 10.001 Z " fill="rgb(226,241,247)" />
    </g>
</svg>