<?xml version="1.0" encoding="UTF-8" standalone="no"?>
<svg xmlns="http://www.w3.org/2000/svg" xmlns:xlink="http://www.w3.org/1999/xlink" style="isolation:isolate" viewBox="0 0 100 100" width="100pt" height="100pt">
    <g>
        <g opacity="0.6">
            <path d=" M 93.252 50.001 C 93.252 45.752 100.949 40.55 99.902 36.631 C 98.818 32.577 89.521 31.924 87.467 28.374 C 85.383 24.774 89.444 16.4 86.523 13.478 C 83.6 10.556 75.227 14.616 71.626 12.534 C 68.077 10.48 67.423 1.182 63.369 0.098 C 59.451 -0.949 54.248 6.748 50 6.748 C 45.752 6.748 40.549 -0.949 36.631 0.098 C 32.576 1.182 31.924 10.48 28.374 12.534 C 24.774 14.617 16.4 10.556 13.478 13.478 C 10.556 16.4 14.616 24.774 12.534 28.374 C 10.48 31.923 1.182 32.576 0.098 36.631 C -0.949 40.549 6.748 45.752 6.748 50 C 6.748 54.248 -0.949 59.45 0.098 63.369 C 1.182 67.423 10.48 68.076 12.534 71.626 C 14.617 75.227 10.556 83.6 13.478 86.522 C 16.4 89.444 24.774 85.383 28.375 87.466 C 31.924 89.52 32.576 98.818 36.631 99.902 C 40.549 100.949 45.752 93.251 50 93.251 C 54.248 93.251 59.451 100.949 63.369 99.902 C 67.423 98.818 68.077 89.52 71.627 87.466 C 75.227 85.382 83.601 89.444 86.523 86.522 C 89.444 83.6 85.384 75.227 87.467 71.625 C 89.52 68.076 98.818 67.423 99.902 63.369 C 100.949 59.451 93.252 54.248 93.252 50.001 Z " fill="rgb(255,190,85)" />
        </g>
        <path d=" M 83.39 50.001 C 83.39 66.865 70.886 80.81 54.641 83.069 C 53.125 83.282 51.576 83.39 50.001 83.39 C 31.56 83.39 16.608 68.441 16.608 50.001 C 16.608 31.559 31.56 16.611 50.001 16.611 C 51.576 16.611 53.125 16.719 54.641 16.931 C 70.886 19.19 83.39 33.135 83.39 50.001 Z " fill="rgb(255,190,85)" />
    </g>
</svg>